{
  "asset": {
    "version": "2.0",
    "generator": "DanVulkan modernization test asset"
  },
  "scene": 0,
  "scenes": [
    {
      "name": "Triangle Scene",
      "nodes": [0]
    }
  ],
  "nodes": [
    {
      "name": "Root",
      "translation": [0.25, 0.0, 0.0],
      "children": [1]
    },
    {
      "name": "Triangle Instance",
      "translation": [0.0, 0.25, 0.0],
      "mesh": 0
    }
  ],
  "meshes": [
    {
      "name": "Triangle",
      "primitives": [
        {
          "attributes": {
            "POSITION": 0,
            "NORMAL": 1,
            "TEXCOORD_0": 2
          },
          "indices": 3,
          "material": 0,
          "mode": 4
        }
      ]
    }
  ],
  "materials": [
    {
      "name": "Triangle PBR",
      "pbrMetallicRoughness": {
        "baseColorFactor": [0.8, 0.9, 1.0, 1.0],
        "baseColorTexture": {
          "index": 0
        },
        "metallicFactor": 0.2,
        "roughnessFactor": 0.65
      },
      "emissiveFactor": [0.02, 0.01, 0.0],
      "alphaMode": "MASK",
      "alphaCutoff": 0.4,
      "doubleSided": true
    }
  ],
  "textures": [
    {
      "name": "Triangle Base Color",
      "sampler": 0,
      "source": 0
    }
  ],
  "samplers": [
    {
      "magFilter": 9729,
      "minFilter": 9987,
      "wrapS": 10497,
      "wrapT": 10497
    }
  ],
  "images": [
    {
      "name": "Triangle Base Color Image",
      "uri": "../textures/texture.jpg"
    }
  ],
  "buffers": [
    {
      "byteLength": 102,
      "uri": "data:application/octet-stream;base64,"
    }
  ],
  "bufferViews": [
    {
      "buffer": 0,
      "byteOffset": 0,
      "byteLength": 36,
      "target": 34962
    },
    {
      "buffer": 0,
      "byteOffset": 36,
      "byteLength": 36,
      "target": 34962
    },
    {
      "buffer": 0,
      "byteOffset": 72,
      "byteLength": 24,
      "target": 34962
    },
    {
      "buffer": 0,
      "byteOffset": 96,
      "byteLength": 6,
      "target": 34963
    }
  ],
  "accessors": [
    {
      "bufferView": 0,
      "componentType": 5126,
      "count": 3,
      "type": "VEC3",
      "min": [-1.0, -1.0, 0.0],
      "max": [1.0, 1.0, 0.0]
    },
    {
      "bufferView": 1,
      "componentType": 5126,
      "count": 3,
      "type": "VEC3"
    },
    {
      "bufferView": 2,
      "componentType": 5126,
      "count": 3,
      "type": "VEC2"
    },
    {
      "bufferView": 3,
      "componentType": 5123,
      "count": 3,
      "type": "SCALAR"
    }
  ]
}
